<?xml version="1.0" standalone="no"?>
<!DOCTYPE svg PUBLIC "-//W3C//DTD SVG 20010904//EN"
 "http://www.w3.org/TR/2001/REC-SVG-20010904/DTD/svg10.dtd">
<svg version="1.0" xmlns="http://www.w3.org/2000/svg"
 width="500.000000pt" height="500.000000pt" viewBox="0 0 500.000000 500.000000"
 preserveAspectRatio="xMidYMid meet">

<g transform="translate(0.000000,500.000000) scale(0.100000,-0.100000)"
fill="#000000" stroke="none">
<path d="M3857 4198 c-3 -13 -20 -97 -37 -188 -17 -91 -33 -173 -36 -182 -5
-16 -23 -18 -204 -18 -205 0 -210 -1 -210 -41 0 -5 85 -9 200 -9 110 0 200 -3
199 -7 0 -5 -19 -107 -43 -228 l-42 -220 -199 -3 c-200 -2 -214 -5 -215 -39 0
-10 47 -13 200 -13 110 0 200 -3 200 -7 0 -5 -16 -89 -35 -188 -19 -99 -35
-186 -35 -192 0 -7 11 -13 25 -13 20 0 25 6 31 38 4 20 21 109 38 197 l31 160
228 3 c189 2 227 0 227 -12 0 -7 -16 -94 -35 -192 -19 -99 -35 -182 -35 -186
0 -5 11 -8 24 -8 29 0 27 -9 66 200 17 91 33 173 36 183 5 15 23 17 204 17
205 0 210 1 210 41 0 5 -85 9 -200 9 l-201 0 7 38 c4 20 23 123 43 227 l37
190 199 3 c200 2 214 5 215 40 0 9 -47 12 -200 12 -153 0 -200 3 -200 13 0 6
16 91 35 187 42 210 42 210 11 210 -23 0 -25 -7 -62 -202 l-39 -203 -231 -3
-231 -2 38 192 c22 105 39 198 39 205 0 7 -11 13 -24 13 -16 0 -26 -7 -29 -22z
m420 -465 c-3 -16 -22 -119 -43 -230 l-38 -203 -228 0 c-167 0 -228 3 -228 12
0 18 81 431 86 440 3 4 107 8 231 8 l226 0 -6 -27z"/>
<path d="M1725 3939 c-200 -25 -430 -118 -590 -237 -220 -164 -390 -409 -489
-703 -30 -91 -76 -293 -76 -335 0 -12 30 -14 207 -12 l208 3 12 102 c45 391
196 736 401 925 163 149 348 207 592 187 281 -24 505 -137 652 -330 100 -130
137 -227 188 -496 l24 -123 46 0 47 0 7 458 c3 251 9 469 12 485 6 27 6 27
-44 27 l-50 0 -6 -47 c-11 -76 -34 -148 -57 -176 -34 -44 -64 -36 -189 49
-133 90 -287 166 -392 193 -147 38 -345 49 -503 30z"/>
<path d="M530 2340 l0 -200 115 0 115 0 0 35 0 35 -75 0 -75 0 0 50 0 49 63 3
c62 3 62 3 62 33 0 30 0 30 -62 33 l-63 3 0 44 0 45 75 0 75 0 0 35 0 35 -115
0 -115 0 0 -200z"/>
<path d="M1070 2523 c-39 -27 -49 -45 -50 -89 0 -54 26 -87 100 -124 60 -30
78 -57 59 -92 -11 -21 -58 -25 -77 -6 -7 7 -12 20 -12 30 0 14 -8 18 -40 18
-35 0 -40 -3 -40 -23 0 -55 60 -97 140 -97 44 0 56 5 81 29 23 23 29 38 29 71
0 64 -21 93 -94 129 -68 34 -83 57 -59 90 21 30 51 26 71 -9 13 -24 24 -30 50
-30 28 0 32 3 32 26 0 16 -13 39 -34 60 -29 29 -41 34 -83 34 -29 0 -58 -7
-73 -17z"/>
<path d="M1580 2523 c-39 -27 -49 -45 -50 -89 0 -54 26 -87 100 -124 60 -30
78 -57 59 -92 -11 -21 -58 -25 -77 -6 -7 7 -12 20 -12 30 0 14 -8 18 -40 18
-35 0 -40 -3 -40 -23 0 -55 60 -97 140 -97 44 0 56 5 81 29 23 23 29 38 29 71
0 64 -21 93 -94 129 -68 34 -83 57 -59 90 21 30 51 26 71 -9 13 -24 24 -30 50
-30 28 0 32 3 32 26 0 16 -13 39 -34 60 -29 29 -41 34 -83 34 -29 0 -58 -7
-73 -17z"/>
<path d="M2040 2340 l0 -200 116 0 115 0 -3 33 -3 32 -72 3 -73 3 0 49 0 50
60 0 60 0 0 35 0 35 -60 0 -60 0 0 45 0 45 76 0 75 0 -3 33 -3 32 -112 3 -113
3 0 -201z"/>
<path d="M2530 2341 l0 -201 35 0 35 0 0 127 c0 77 4 123 9 118 5 -6 33 -63
61 -127 l53 -118 38 0 39 0 0 201 0 200 -37 -3 -38 -3 -5 -122 -5 -122 -55
122 -56 122 -37 3 -37 3 0 -200z"/>
<path d="M3060 2505 l0 -35 50 0 50 0 0 -165 0 -165 40 0 40 0 0 165 0 165 45
0 c45 0 45 0 45 35 l0 35 -135 0 -135 0 0 -35z"/>
<path d="M3597 2533 c-4 -3 -7 -93 -7 -200 l0 -193 40 0 40 0 0 200 0 200 -33
0 c-19 0 -37 -3 -40 -7z"/>
<path d="M4045 2528 c-24 -72 -115 -371 -115 -378 0 -6 18 -10 39 -10 37 0 40
2 48 38 9 37 9 37 65 40 l57 3 11 -41 c10 -38 13 -40 50 -40 43 0 45 2 31 46
-6 16 -33 102 -61 192 l-51 162 -35 0 c-19 0 -37 -6 -39 -12z m75 -230 c0 -5
-16 -8 -36 -8 -40 0 -39 -5 -12 95 l11 40 18 -60 c10 -33 19 -63 19 -67z"/>
<path d="M4500 2340 l0 -200 105 0 105 0 0 35 0 35 -70 0 -70 0 0 165 0 165
-35 0 -35 0 0 -200z"/>
<path d="M580 1986 c0 -43 57 -252 95 -347 112 -282 290 -497 520 -631 206
-119 435 -178 697 -178 272 0 456 59 728 234 118 75 152 86 182 59 29 -25 44
-65 58 -155 l13 -78 50 0 c49 0 49 0 43 28 -3 15 -9 242 -12 505 l-7 477 -47
0 -47 0 -18 -127 c-26 -195 -66 -338 -122 -445 -137 -262 -415 -410 -773 -412
-163 0 -223 13 -367 84 -206 102 -370 302 -477 586 -34 90 -83 282 -92 362
l-7 62 -208 0 -209 0 0 -24z"/>
</g>
</svg>
